<mxfile host="65bd71144e">
    <diagram id="QaEb_EiUe9x0RBvg5XNL" name="Page-1">
        <mxGraphModel dx="1025" dy="599" grid="1" gridSize="10" guides="1" tooltips="1" connect="1" arrows="1" fold="1" page="1" pageScale="1" pageWidth="850" pageHeight="1100" math="0" shadow="0">
            <root>
                <mxCell id="0"/>
                <mxCell id="1" parent="0"/>
                <mxCell id="5" style="edgeStyle=none;html=1;" parent="1" source="2" target="4" edge="1">
                    <mxGeometry relative="1" as="geometry"/>
                </mxCell>
                <mxCell id="2" value="Android Splash&lt;br&gt;(Entrypoint)" style="html=1;whiteSpace=wrap;" parent="1" vertex="1">
                    <mxGeometry x="300" y="130" width="110" height="50" as="geometry"/>
                </mxCell>
                <mxCell id="7" style="edgeStyle=none;html=1;entryX=0;entryY=0.5;entryDx=0;entryDy=0;startArrow=classic;startFill=1;" parent="1" source="4" target="6" edge="1">
                    <mxGeometry relative="1" as="geometry"/>
                </mxCell>
                <mxCell id="4" value="Main Menu" style="html=1;whiteSpace=wrap;" parent="1" vertex="1">
                    <mxGeometry x="300" y="230" width="110" height="50" as="geometry"/>
                </mxCell>
                <mxCell id="9" style="edgeStyle=none;html=1;entryX=0.5;entryY=0;entryDx=0;entryDy=0;startArrow=classic;startFill=1;" parent="1" source="6" target="8" edge="1">
                    <mxGeometry relative="1" as="geometry"/>
                </mxCell>
                <mxCell id="6" value="Sensors Directory" style="html=1;whiteSpace=wrap;" parent="1" vertex="1">
                    <mxGeometry x="460" y="230" width="110" height="50" as="geometry"/>
                </mxCell>
                <mxCell id="11" style="edgeStyle=none;html=1;entryX=0.5;entryY=0;entryDx=0;entryDy=0;startArrow=classic;startFill=1;" parent="1" source="8" target="10" edge="1">
                    <mxGeometry relative="1" as="geometry"/>
                </mxCell>
                <mxCell id="8" value="Induvidual Sensor" style="html=1;whiteSpace=wrap;" parent="1" vertex="1">
                    <mxGeometry x="460" y="330" width="110" height="50" as="geometry"/>
                </mxCell>
                <mxCell id="10" value="Induvidual Sensor&lt;br&gt;Settings" style="html=1;whiteSpace=wrap;" parent="1" vertex="1">
                    <mxGeometry x="460" y="430" width="110" height="50" as="geometry"/>
                </mxCell>
                <mxCell id="12" value="Nav Flow" style="text;html=1;align=center;verticalAlign=middle;whiteSpace=wrap;rounded=0;fontSize=25;" parent="1" vertex="1">
                    <mxGeometry x="360" y="40" width="155" height="50" as="geometry"/>
                </mxCell>
            </root>
        </mxGraphModel>
    </diagram>
</mxfile>